# xmcd CD database file
#
# Track frame offsets:
#	150
#	39386
#	66679
#	97441
#	132012
#	164383
#	200033
#
# Disc length: 3016 seconds
#
# Revision: 2
# Processed by: cddbd v1.5.2PL0 Copyright (c) Steve Scherf et al.
# Submitted via: CDex 1.70beta2
#
DISCID=6c0bc607
DTITLE=Hansa Jazz Quartett - Freelaxing
DYEAR=2007
DGENRE=Jazz
TTITLE0=Joy in a scene from sadness
TTITLE1=Some other blues
TTITLE2=Quasimodo
TTITLE3=I remember bird
TTITLE4=Catability
TTITLE5=Gloria's Step
TTITLE6=Freelaxing
EXTD=YEAR: 2007
EXTT0=
EXTT1=
EXTT2=
EXTT3=
EXTT4=
EXTT5=
EXTT6=
PLAYORDER=
